M48
; DRILL file {KiCad 7.0.7} date 2024 May 15, Wednesday 22:38:15
; FORMAT={-:-/ absolute / metric / decimal}
; #@! TF.CreationDate,2024-05-15T22:38:15+02:00
; #@! TF.GenerationSoftware,Kicad,Pcbnew,7.0.7
; #@! TF.FileFunction,Plated,1,2,PTH
FMAT,2
METRIC
; #@! TA.AperFunction,Plated,PTH,ViaDrill
T1C0.400
; #@! TA.AperFunction,Plated,PTH,ComponentDrill
T2C0.400
; #@! TA.AperFunction,Plated,PTH,ComponentDrill
T3C1.000
; #@! TA.AperFunction,Plated,PTH,ComponentDrill
T4C1.100
%
G90
G05
T1
X93.322Y-73.75
X96.072Y-87.75
X110.822Y-80.25
X110.822Y-91.0
T2
X96.452Y-60.71
X96.452Y-63.25
X96.452Y-73.41
X96.452Y-75.95
X104.072Y-60.71
X104.072Y-63.25
X104.072Y-73.41
X104.072Y-75.95
T3
X108.314Y-83.75
X118.347Y-83.75
X122.564Y-96.5
X122.564Y-114.0
X132.597Y-96.5
X132.597Y-114.0
X150.314Y-96.5
X150.314Y-114.0
X160.347Y-96.5
X160.347Y-114.0
T4
X85.072Y-102.5
X85.072Y-107.5
X86.072Y-71.0
X86.072Y-76.0
X95.822Y-115.25
X96.072Y-94.75
X100.822Y-115.25
X101.072Y-94.75
X112.322Y-102.75
X112.322Y-107.75
X113.072Y-63.25
X118.072Y-63.25
X141.572Y-102.75
X141.572Y-107.75
T2
G00X131.428Y-76.15
M15
G01X131.428Y-75.35
M16
G05
G00X140.572Y-76.15
M15
G01X140.572Y-75.35
M16
G05
T0
M30
